<?xml version="1.0" encoding="UTF-8" standalone="no"?>
<!DOCTYPE svg PUBLIC "-//W3C//DTD SVG 1.1//EN" "http://www.w3.org/Graphics/SVG/1.1/DTD/svg11.dtd">
<svg width="100%" height="100%" viewBox="0 0 512 512" version="1.1" xmlns="http://www.w3.org/2000/svg" xmlns:xlink="http://www.w3.org/1999/xlink" xml:space="preserve" xmlns:serif="http://www.serif.com/" style="fill-rule:evenodd;clip-rule:evenodd;stroke-linejoin:round;stroke-miterlimit:2;">
    <g transform="matrix(1.088257,0,0,1.088257,2.347042,-16.184974)">
        <circle cx="233.082" cy="249.661" r="234.789" style="fill:white;"/>
    </g>
    <g transform="matrix(13.473684,0,0,13.473684,0,0)">
        <path d="M31.75,12.975C31.962,13.076 32.214,12.987 32.315,12.775L34.554,8.094C34.37,7.833 34.18,7.577 33.984,7.325L31.552,12.41C31.451,12.622 31.54,12.874 31.75,12.975Z" style="fill:rgb(239,177,0);fill-rule:nonzero;"/>
        <path d="M38,19.001C38,15.304 36.941,11.857 35.115,8.938C34.363,10.857 33.42,13.187 32.879,14.236C32.013,15.918 29.603,16.228 29.011,16.301C26.093,23.98 25.491,31.104 25.769,36.755C32.919,34.026 38,27.109 38,19.001ZM28.555,31.225C28.555,31.225 25.573,22.467 34.885,17.689C34.885,17.689 37.002,28.147 28.555,31.225Z" style="fill:rgb(239,177,0);fill-rule:nonzero;"/>
        <path d="M14.351,33.729C10.738,14.868 18.796,4.557 23.219,0.476C21.861,0.168 20.451,0 19,0C15.665,0 12.533,0.862 9.809,2.371C16.322,8.652 12.07,15.703 12.07,15.703C6.679,12.288 7.451,6.309 8.262,3.327C5.206,5.425 2.797,8.393 1.387,11.874C3.162,10.836 6.641,12.578 8.63,15.731C10.482,18.664 8.986,21.966 8.738,22.46C8.736,22.46 8.735,22.461 8.734,22.462C11.709,26.927 13.242,32.83 14.021,37.337C15.135,37.639 16.29,37.84 17.476,37.934L17.204,33.42L14.351,33.729Z" style="fill:rgb(239,177,0);fill-rule:nonzero;"/>
        <path d="M26.682,11.272C27.398,9.651 29.796,5.51 30.671,4.013C28.891,2.625 26.861,1.543 24.656,0.857C17.48,16.553 19.721,33.147 19.721,33.147L20.62,37.927C21.229,37.876 21.829,37.795 22.42,37.688C22.526,27.931 26.114,18.879 27.517,15.707C27.459,15.624 25.814,13.235 26.682,11.272Z" style="fill:rgb(239,177,0);fill-rule:nonzero;"/>
        <path d="M30.061,12.167C30.271,12.268 30.526,12.179 30.627,11.967L33.264,6.455C33.062,6.227 32.856,6.003 32.645,5.784L29.862,11.601C29.761,11.813 29.852,12.067 30.061,12.167Z" style="fill:rgb(239,177,0);fill-rule:nonzero;"/>
        <path d="M28.373,11.359C28.583,11.46 28.836,11.37 28.937,11.159L31.87,5.026C31.654,4.828 31.434,4.635 31.209,4.446L28.174,10.794C28.072,11.006 28.161,11.258 28.373,11.359Z" style="fill:rgb(239,177,0);fill-rule:nonzero;"/>
        <path d="M1.524,20.215C0.806,19.078 0.356,17.835 0.149,16.656C0.055,17.425 0,18.206 0,19.001C0,26.665 4.54,33.265 11.077,36.269C10.678,30.073 8.776,25.466 7.618,23.182C7.108,23.193 3.389,23.171 1.524,20.215ZM8.404,30.872C3.676,30.204 3.623,24.536 3.623,24.536C8.988,25.993 8.404,30.872 8.404,30.872Z" style="fill:rgb(239,177,0);fill-rule:nonzero;"/>
        <path d="M5.317,26.476C4.973,26.068 4.618,25.669 4.229,25.294C4.479,25.772 4.762,26.226 5.057,26.67C5.35,27.116 5.662,27.548 5.978,27.977C6.301,28.401 6.626,28.822 6.972,29.228C7.316,29.637 7.671,30.036 8.059,30.411C7.809,29.933 7.526,29.48 7.231,29.035C6.939,28.588 6.626,28.157 6.311,27.728C5.989,27.304 5.662,26.883 5.317,26.476Z" style="fill:rgb(239,177,0);fill-rule:nonzero;"/>
        <path d="M9.652,6.169C9.804,7.134 9.999,8.09 10.204,9.043C10.422,9.994 10.649,10.942 10.92,11.881C11.186,12.821 11.477,13.756 11.842,14.674C11.785,13.687 11.654,12.717 11.498,11.753C11.346,10.788 11.151,9.832 10.947,8.878C10.729,7.927 10.502,6.979 10.232,6.04C9.966,5.1 9.675,4.165 9.309,3.247C9.365,4.234 9.495,5.205 9.652,6.169Z" style="fill:rgb(239,177,0);fill-rule:nonzero;"/>
        <path d="M31.181,24.617C30.767,25.53 30.362,26.447 29.997,27.383C29.628,28.317 29.284,29.263 29.01,30.241C29.578,29.399 30.076,28.524 30.549,27.639C31.027,26.755 31.463,25.852 31.891,24.945C32.306,24.032 32.712,23.116 33.077,22.179C33.446,21.245 33.79,20.3 34.063,19.322C33.494,20.163 32.996,21.037 32.523,21.923C32.045,22.807 31.609,23.71 31.181,24.617Z" style="fill:rgb(231,163,54);fill-rule:nonzero;"/>
    </g>
</svg>
